<?xml version="1.0" encoding="UTF-8"?><svg id="Calque_1" xmlns="http://www.w3.org/2000/svg" viewBox="0 0 496.33 397.33"><defs><style>.cls-1{fill:#dfc7aa;}.cls-2{fill:#4d3124;}.cls-3{fill:#ddc8af;}.cls-4{fill:#603d2b;}.cls-5{fill:#99816f;}.cls-6{fill:#482e23;}.cls-7{fill:#3c251e;}.cls-8{fill:#3b261d;}.cls-9{fill:#7e5940;}.cls-10{fill:#6a5648;}.cls-11{fill:#69452e;}.cls-12{fill:#1b1110;}.cls-13{fill:#211713;}.cls-14{fill:#77523d;}.cls-15{fill:#4e3329;}.cls-16{fill:#482c21;}.cls-17{fill:#40291d;}.cls-18{fill:#816d5f;}.cls-19{fill:#1c130f;}.cls-20{fill:#9d8c7f;}.cls-21{fill:#b99c86;}.cls-22{fill:#513226;}.cls-23{fill:#d0c7b8;}.cls-24{fill:#c7c2c5;}.cls-25{fill:#704b34;}.cls-26{fill:#1d1312;}.cls-27{fill:#cfa479;}.cls-28{fill:#38241b;}.cls-29{fill:#cea274;}.cls-30{fill:#c9a888;}.cls-31{fill:#503023;}.cls-32{fill:#ae8b71;}.cls-33{fill:#1c1311;}.cls-34{fill:#1d1412;}.cls-35{fill:#8c6144;}.cls-36{fill:#1b1210;}.cls-37{fill:#bd936f;}.cls-38{fill:#271c18;}.cls-39{fill:#8b6144;}.cls-40{fill:#845a3f;}.cls-41{fill:#c29569;}.cls-42{fill:#674c3d;}.cls-43{fill:#281a16;}.cls-44{fill:#e3caac;}.cls-45{fill:#1f100c;}.cls-46{fill:#765138;}.cls-47{fill:#1a110f;}.cls-48{fill:#2b1b12;}.cls-49{fill:#ae8464;}.cls-50{fill:#c3b9ab;}.cls-51{fill:#221711;}.cls-52{fill:#291814;}</style></defs><path class="cls-17" d="M4.7,76.4c-.76,8.74-1.59,17.71-2.04,26.46-.93,18.09-3.53,45.38,3.04,61.54,5.25,12.9,15.11,33.4,21.81,45.69.51.93.95,2.2,2.18,2.31,1.63-9.83.48-23.79,3.49-33.02,1.51-4.65,8.62-14.9,11.52-19.98.51-1.81.52-2.72-.5-1.39,13.85-30.62,29.51-60.15,46.97-88.6l.53-4.01c-2.36-.54-4.8-1.07-7.23-.79-25.49,2.93-51.23,6.03-76.48,9.96l-3.29,1.83Z"/><path class="cls-40" d="M37.7,33.4L4.7,76.4c28.9-4.34,58.25-5.76,87-11,.38,2.29,1.82,3.7,4,2l3.42,3.87c17.91,10.02,35.63,20.4,53.15,31.13,5.97,4.28,12.11,6.62,18.43,6.99.22-.89.39-1.79.42-2.69s.05-1.74-.24-2.45c-8.67-20.81-21.61-43.16-33.28-62.58l-3.9-3.28-.66-2.54c-29.25-1.46-58.53-2.77-87.86-3.94l-7.48,1.47Z"/><path class="cls-41" d="M143.7,2.4c-17.04-1.07-35.25-1.69-52.17.17l-2.83,2.83c-1.98.88-4.04,2.01-6,3-15.19,7.64-30.04,16.86-45,25,10.44,1.09,21.03.47,31.49,1.01,7.05.36,14.93,1.69,21.97,2.03,12.48.61,26.78-.31,39.09.94,1.25.13,2.41.26,3.45,1.02l1.88-1.35c4.97-9.47,10.76-18.51,17.38-27.14,10.23-8.27-2.12-9.38-9.27-7.52Z"/><path class="cls-35" d="M171.7,109.4c-.62.72-1.21,1.46-1.68,2.27s-.87,1.56-1.04,2.38c-5.57,26.81-11.16,54.09-14.4,81.08.54,3.16,2.89,4.4,4.12,1.27,4.22-4.03,6.19-12.49,5-18l3.25-3.3c11.68-24.86,23.36-49.71,35.03-74.57,4.96-21.7,9.2-43.41,12.73-65.13-10.14-8.9-34.34-21.31-47-28-2.89-1.53-6.05-4.01-9-5-2.89-.83-2.92,5.17-2.57,7.81,4.11,31.59,8.83,65.56,15.45,96.12-.77,1.01-.74,1.83.12,3.07Z"/><path class="cls-29" d="M143.7,1.4c-.87.28-.86.62,0,1,3.51.07,11.61-1.49,12,2.52.03.28-3.39,2.46-4.3,3.75-4.78,6.79-12.55,17.63-16.37,24.57-.97,1.76-1.74,2.99-1.33,5.16,11.78,23.88,27.91,45.89,37,71,.28.87.62.86,1,0,.04-.25,1.93-1.39,1.92-3.45s-2.15-7.38-2.62-10.34c-4.3-26.83-8.38-53.96-12.16-80.84-.49-3.47-1.84-9.44-.14-12.36-5.03-1.68-9.66-.89-15-1Z"/><path class="cls-50" d="M88.7,5.4c2.49-1.11,4.7-2.69,7.47-3.03,12.84-1.57,33.9-.24,47.53.03v-1c-15.16-.3-30.37.23-45.54.05-4.92-.06-5.62-.69-9.46,3.95Z"/><path class="cls-28" d="M95.7,67.4l-.36,3.97c3.74,9.69,7.17,19.5,10.3,29.43,3.02,4.59,4.71,9.46,5.06,14.6,1.91-.17,2.9-.11,3.81,1.69,1.19,2.37,4.38,18.49,4.92,22.12.28,1.87.19,3.41.28,5.19,1.09,21.97-14.47,56.3-13,78.48,1.06,15.99,17.83,65.04,24.25,81.77,1.46,3.81,3.26,10.33,5.84,13.16,6.24,6.85,31.05,23.79,39.53,29.42,8.93,5.92,11.15,9.23,22.38,10.17,3.82-2.07-1.35-7.1-3.75-9.25-11.69-9.39-23.53-18.35-35.54-26.88-3.84-17.78-6.71-35.92-6.77-54.17l-1.94-4.71,2.14-4.11c.87-19.26,3.21-38.49,6.96-57.4l-1.1-4.49c-3.02.52-2.04-1.41-1.87-3.35,2.33-26.53,11.04-56.5,14.87-83.65h-1c-25.83-11.25-49.78-30.17-75-42Z"/><path class="cls-36" d="M91.7,65.4c-6.16,7.83-11.63,17.29-16.39,26.11-10.74,19.89-22.66,43.92-31.27,64.76-.67,1.63-2.43,1.75.66,3.13,2.35-4.12,13.51-24.17,15.64-25.86,2.75-2.2,11.06-4.72,14.85-6.15,11.66-4.41,23.92-7.39,35.52-11.98,4.81-3.42-1.73-11.33-3.19-15.31-4-10.91-6.67-22.24-11.81-32.69-1-.47-2.05-2.35-4-2Z"/><path class="cls-22" d="M346.7,119.4c-4.67,6.2-13.63,16.91-17,23l-3.53,2.26c-6.83,12-12.84,24.31-18.06,36.91l1.58,1.82c.94,1.74,1.99,3.5,3.56,4.75,15.05,12.01,34.52,26.23,51.48,34.96,9.35,4.81,24.88,7.18,35.41,7.09l2.55-1.8c2.98-1.41,1.62-4.34-4.1-8.78,15.09-2.09,13.91-10.28-.77-9.82l-3.13-1.4c-1.8-3.65-8.28-4.23-12-3-2.39-11.66-5.72-22.99-10-34,.87-.25.85-.58,0-1-2.04-2.61-2.22-5.55-2.43-9.05-4.74-12.7-6.6-25.02-5.57-36.95,1.16-1.76.24-3.8-2.74-6.12l-3.7-9.59-2.56-.3c-2.94,4.16-6.34,7.47-9,11Z"/><path class="cls-38" d="M214.7,35.4c-2.44-.49-2.23,1.08-2.68,2.77-5.04,18.75-5.13,41.62-11.27,59.78-8.79,26.03-28.23,53.26-37.05,80.45-1.05,5.05,2.17,7.3,5.03,2.43l51.66-32.12c6.81-3.87,11.63-8.38,12.85-16.37l1.46.06c1.38-7.14,6.03-27.16,5-33-2.13-12.04-13.19-39.95-18.25-52.25-2.09-5.08-2.47-8-6.75-11.75Z"/><path class="cls-34" d="M445.7,152.4c-.25-2.75-1.56-5.55-3.92-8.4l-7.55-16.39c-1.89-9.31-24.06-7.81-26.5-3.33-.5.92.11,8.03.53,9.61,3.37,12.79,15.21,13.09,25.97,12.31.96,2.42,1.78,3.6,4.48,4.21-.99,1.68-.38,2.96,1.84,3.85-3.94,6.3-7.37,12.96-10.27,19.99-17.76,11.47-37.59,4.18-55.26-5.06l-2.31,1.22c.04.33-.05.67,0,1,4.17,7.64,15.14,16.45,22.73,22.23,2.26,2.82,4.35,3.75,6.27,2.77.49,2.93,3.13,2.72,4,0,13.03,4.21,28.7,2.32,41.75-1.92,2.83.34,1.76.49,4.37,2.3.49.34,3.83,1.29,5.87,1.63,3.2-.08,6.2-.42,9-1,1.94.17,4.06-.61,7-2,2.81-1.49,3.31-5.98,3-6l-1.55-1.53c-2.69,1.5-17.96,2.24-18.98-1.44-.64-2.29,11.77-13.61,14.45-15.79,1.05-1.46,1.75-3.33.09-4.24l-1.18-2.91-13.45-6.77c-3.45-2.67-6.91-4.1-10.38-4.32Z"/><path class="cls-39" d="M412.7,77.4c-.56.02-1.97.97-3.45,1.01-5.53.14-11.06.41-16.55,0,1.41,5.25,5.55,9.99,11,11l1.39,4.04c7.14,5.72,13.35,12.04,18.61,18.96,1.74,1.6,4.33,2.66,7.77,3.19,7.92,10.54,12.66,22.82,14.23,36.81,7.26,5.89,17.07,9.57,25,14,.28.89.61.88,1,0,11.67-2.5,13.32-8.15,5.01-19.06l-18.43-22.66c-1.47-3.75-3.33-5.51-5.58-5.28l-.47-3.68c-11.37-13.07-23.55-25.18-36.53-36.32-.04-.06-1.17.12-1-.99h7c-.33-3.3-8.16-4.48-9-1.01Z"/><path class="cls-51" d="M363.7,96.4l-.69,4.01c5.16,9.47,7.31,20.03,8.43,30.75l1.26,1.24c.31.81.65.8,1,0,2.42,1.19,3.09.19,2-3,.65-.06,1.19-.18,1.36-.5,5.51-10.47,8.38-23.96,10.48-35.56l-1.84-1.94c1.01-5.5.92-10.74-.29-15.71-7.26-1.49-14.49-3.19-21.69-5.11l-2.03,1.81c-.12.43-1.04.83-1.05,2.4-.03,2.72,2.32,18.62,3.05,21.6Z"/><path class="cls-27" d="M415.7,79.4c9.47,12.5,26.06,26.57,37,40l1.74,1.49c5.54-2.04,11.09-4.08,16.63-6.13l.62-2.36c-19.24-10.13-35.13-26.92-56-33Z"/><path class="cls-13" d="M412.7,77.4c3.97-.12,5.58.38,9,1,2.81.51,5.35.8,8,2l2.2-.7c4.31-12.32,2.95-21.55-4.2-32.3-.43-1.05-4.04-8.74-4.99-8l-10.01,38Z"/><path class="cls-37" d="M452.7,119.4c1.62,1.99,2.46,4.57,4,6.5,8.29,10.4,17.06,20.33,24.85,31.18,1.14,3.26-8.34,5.88-9.85,9.32-1.23,2.57-.67,3.15,2,2,1.08,4.12,11.02,9.06,15,8,2.92,2.16,4.59,2.16,5,0-1.64-4.89-8.25-10.73-10.7-16.8-5.75-14.27-6.54-32.45-11.3-47.2l-19,7Z"/><path class="cls-2" d="M379.7,55.4c-1.38-2.57-3.73-7.02-5.27-9.23-.81-1.16-.78-2.19-2.73-1.77-.18,9.97-7.56,19.27-10.01,28,8.37.51,15.61,5.16,24.01,5-.22,4.63.29,9.38,0,14,3.99-2.21,3.5-9.17,3.16-13.52-.6-7.64-3.87-17.01-9.16-22.48Z"/><path class="cls-30" d="M378.96,54.03c6.11,11.34,9.91,24.36,6.74,37.37-.65,10.27-6.62,27.63-10,38-1.45,3.02-.73,4.25,2.58,2.9,1.99-.81,15.66-29.79,15.1-32.85-.13-.7-.38-1.38-.68-2.04,8.55-3.03,3.59-12.55.37-18.1l-.37-.9c-.9-.9-2.84-.79-3.05-1.63-.54-2.09.37-5.09-.6-8.21-.73-2.35-4.68-10.25-6.88-12.16-1.33-1.16-2.62-1.95-3.2-2.36Z"/><path class="cls-52" d="M453.7,206.4c.4,2.03,1.94,3.76,4.62,5.19l10.96,11.89c4.64,3.17,6.59,5.95,7.42,10.91,1.25,1.55,2.66,4.8,0,11,.29.51-.31,2.71,0,3,1.7,1.59,6.04-5.55,7-7,.84-1.27,2.43-3.74,3-5,.09-4.24-2.47-11.33-6-13-.64-6.01-2.64-10.68-6-14-3.97-2.53-9.91-4.16-15-5-2.58.56-4.22,1.57-6,2Z"/><path class="cls-20" d="M476.7,189.4c.56-.57.68-2.61,2-3l.96-3.17c-1.77-5.13-3.76-10.07-5.96-14.83-.69-.38-1.34-1.63-2-2-.25-.14-.75.14-1,0-1.21,4.21-5.94,6.17-9.02,9.48-1.5,1.61-8.26,9.43-7.91,10.92.37,1.58,7.77,4.45,9.55,4.57,1.93.13,12.63-1.2,13.38-1.97Z"/><path class="cls-14" d="M355.7,108.4c2.16,2.76,3.04,8.29,4.57,10.93.92,1.58,3.07,3.18,4.43,5.07-2.02,2.34,3.43,8.22,6,8,.6,1.91,1.49,1.91,2,0,.61-7.58-1.11-15.03-3.28-22.22-1.3-4.31-4.82-10.14-5.72-13.78-2.46,4.16-5.21,8.05-8,12Z"/><path class="cls-32" d="M429.7,80.4c2.36,1.07,5.24,4.13,8,5v-18.5c.02-.5.07-1.85-.13-2.69-.72-3.09-7.67-13.44-9.87-16.81,1.1,2.72,4.83,14.23,4.91,16.59.15,4.34-1.97,11.91-2.91,16.41Z"/><path class="cls-26" d="M478.7,186.4c6.66-1.98,7.11-.06,13-6,2.37-2.75-.17-3.41-3-4-4.09-2.72-10.44-5.48-15-8-1.93.89-.42,3.2-.03,4.52,1.39,4.63,3.43,8.95,5.03,13.48Z"/><path class="cls-5" d="M480.7,223.4c.92,7.24,4.53,6.95,6,13,2.67-5.85-2.81-15.66-6-21-1.96,1.5-1.96,4.17,0,8Z"/><path class="cls-42" d="M474.7,209.4c2.43,4.56,2.62,9.84,6,14-.32-2.49.22-5.43,0-8-1.14-1.91-2.1-4.42-4-6-.32-.27-.58-.68-1-1-1.36-.47-1.83-.21-1,1Z"/><path class="cls-10" d="M488.7,176.4c1.58,1.05,2.5,2.13,3,4,1.98-2,3.14-.6,2-4h-5Z"/><path class="cls-12" d="M234.7,132.4l-1.99-4.99c-.31,3.22-3.03,11.12-5.08,13.42-3.24,3.64-18.72,12.54-24,16-11.82,7.73-24.37,14.63-36.23,22.58-.87.58-.71,3.7-2.71,1.49l-.98-2.48c-1.84,5.69-3.7,12.04-5,18-4.38,20.15-7.45,45.34-8,66,2.23,5.12,5.41,9.94,9.53,14.44,14.4,24.87,28.66,50.05,42.79,75.55-2.79,1.35-3.9,3.02-3.32,5.01,7,.66,14.04,1.01,21,2,3.05-.57,2.92-2.13,0-3-2.97-6.77-4.3-14.1-4-22,4.38.12,2.31-11.54-1-12-2.42-10.83-4.09-22.17-5-34l1.65-3.55c.01-4.8-1.7-24.64-3.96-27.08-.49-.53-1.08-.96-1.69-1.37-1.5-2.98-3.65-1.64-4.63,1.13-1.26,14.88-4.12,28.94-8.57,42.19l.2,3.68c1.08,4.38,2.44,8.81,3.26,13.25.24,1.31,1.88,1.95-.75,1.75-5.77-9.4-12.43-16.06-13.5-27.5-.26-2.8.08-5.68-.01-8.49v-44c.09-4.57-.54-10.2-.02-14.52.75-6.24,20.04-32.53,25.05-38.95,8.95-11.48,20.6-19.81,23.72-34.28,1.23-5.73,2.1-12.28,3.25-18.25Z"/><path class="cls-7" d="M247.7,223.4l-1.52-1.7-29,8.58c-3.05,1.14-5.87,1.18-8.48.12-7.39-.04-9.5,25.11-2,26,2.57,10.41,2.86,21.39,4,32,1.09,11.53,2.76,22.86,5,34,.3,4.16,2.35,8.01,1,12-.37,7.93.96,15.27,4,22,.39,2.47-.02,2.68,0,3,.09,1.34,16.6,16.45,19,19,2,3.19,9.17-1.77,9-5-.26-2.76-2.7-3.47-7.31-2.13,11.28-42.72,23.31-87.21,43.52-126.63,4.78-2.68,4.98-5.09,5.29-10.17,4.09-3.19,5.26-8.21,3.5-15.08.79-.53,1.11-1.25.47-1.82-5.29-4.74-38.66,3.13-46.47,5.82Z"/><path class="cls-33" d="M309.7,184.4l-1.9,2.89c8.88,22.89,21.04,46.15,34.17,66.71,2.07,3.23,4.32,4.37,6.73,3.4l1.38,1.74c5.75-.65,11.62-.89,17.62-.74,4.85-.21,10.64.63,15.27-.23,13.47-2.51,36.75-17.01,51.73-21.77.76-.24,1.84-1.58,2.99-1.64,1.03-.67,1.78.59,2.01.64,3.07,2.51,6.4,4.18,10,5,.62.34,1.35.68,2,1,2.42,3,3.33,4.69.05,8.17-.4,1.25-.48,3.54.95,3.83,5.02-1.71,7.97-7.83,14-6.99.43.32-5.73,7.86-3.5,9.98,3.13-2.75,4.58-6.47,6.5-9.99,2.96-6.79-4.84-15.63-11-16-2.43-3.06-9.13-3.15-11.5,0-.21-.78-.53-1.94-1.12-2-4.26-.44-14.21-.43-18.47,0l-1.41,2-1.74-2.03-19.65-1.79-2.11,1.82c-25.27-2.12-30.38-1.64-51.72-15.78-14.02-9.29-27.12-20.13-41.28-29.22-.9.24-.88.58,0,1Z"/><path class="cls-19" d="M323.7,321.4c-3.82,1.75-5.23,4.95-4,9-.56.03-1.1.09-1.59.3-1.72.72-14.77,31.53-14.4,34.22s1.01,3.8,3.93,3.91c16.13.04,34.13,0,49.06-1.42,3.75,1.82,8.2,9.24,11.01,10.49,1.69.75,17.31,2.11,17.98,1.51l-1.99-4.99,20.99,4.99c-2.72-3.85-5.82-7.53-9-10.99-5.07-5.51-9.26-9.62-15.87-13.49-21.33,2.48-42.91,1.51-64.13,4.48,5.4-6.04,13.5-8.47,20-12.99,11.13-20.94,16.18-44.59,18.7-68.56.5-3.09-.57-3.9-3.3-4.02-3.88-.17-27.68,39.77-27.4,47.58Z"/><path class="cls-47" d="M248.7,373.4c-2.45,1.15-5.74,4.11-9,5,.8.85,1.27,3.26,2,4l10,1c2,.06,4-.01,6,0l10,1c21.96.11,45.4,1.83,66.83,6.67,3.58.81,7.27,1.97,10.69,3.31,1.47-2.18-7.03-10.59-6.51-10.98,9.55.93,20.41,6.47,30,5.99l.17-2.64c-2.86-3.94-16.89-15.95-21.42-17.07-20.35.51-40.87.18-61.57-.98,8.06-5.99,15.07-12.98,21.04-20.96l-.21-3.35c.73-2.62-1.02-2.74-3.21-1.63-17.25,9.63-34.74,18.98-52.48,28.07l-2.32,2.57Z"/><path class="cls-43" d="M150.7,262.4c-.55,20.55,2.6,38.93,6.56,58.94,1.31,3.42,4.01,3.57,5.88,5.06,8.57,6.8,18.67,13.3,26.91,20.19,2.98,2.49,8.51,6.87,8.64,10.81.33.03.67-.03,1,0l6-4.53c-7.21-13.79-15.87-26.87-23.38-40.59-6.53-11.92-10.66-22.43-18.79-34.21-3.56-5.16-8.33-11.54-12.83-15.67Z"/><path class="cls-21" d="M319.7,330.4c.59-8.02-6.69.25-5.21,2.41.06.08.37-1.78-.79-1.41-3.91,1.85-5.91,5.52-6,11-2.6-.82-2.73-.03-1,2-7.3,11.89-16.76,17.85-27,26.99,12.17.15,24.37-.14,36.54-.03,2.39.02,4.6,1.1,6.96,1.13,7.29.07,16.03-2.43,23.77-.86,5.05,1.03,17.55,13.69,21.73,17.77.6-.03,1.88.12,2,0,.17-.17-.04-4.58-.16-4.79-.22-.38-1.72-.59-2.22-1.28-1.17-1.61-3.73-6.33-5.12-6.92-1-.42.24,3.1-1.5,1.51-1.13-1.04-4.65-6.46-5.79-8.21s-2.29-2.63.8-2.3c-.8-.39-.82-.86-2.39-1.06-6.98-.88-46.86,1.74-48.6.05-.2-1.11.13-2,.46-3.03,2.83-8.98,9.53-23.93,13.54-32.96Z"/><path class="cls-9" d="M457.7,215.4c-3.67,1.85-4.44,14.5,1,15,1.43,2.27,6.7,5.1,8.67,8.83,1.35,2.56,1.32,4.65,2.33,7.17.38-.7,1.1-1.03,2-3,3.78.51,4.56-6.79,3-9,1.71-.2,1.72-2.64,1.3-4.21-.29-1.1-14.75-15.84-15.88-16.03-.91-.15-1.75.53-2.43,1.24Z"/><path class="cls-23" d="M241.7,382.4c1.85,1.86,7.04.92,10,1-2.37-2.13-6.86-.57-10-1Z"/><path class="cls-23" d="M257.7,383.4c2.3,1.83,6.86.98,10,1-2.3-1.83-6.86-.98-10-1Z"/><path class="cls-46" d="M223.7,173.4c-1.78,2.35-1.44,3.35,1,3,1.41,1.44,3.02,2.63,4.91,3.34,17.46,6.55,53.16,7.75,72.51,7.64.92,0,1.85-.31,2.8-.65s1.89-.82,2.79-1.33c1.27,1.7,1.61.91,2-1,.02-.33-.05-.68,0-1,.19-1.23,1.66-4.87,2.27-6.23,4.61-10.36,12.22-24.82,17.73-34.77-31.94,8.53-80.79,7.56-106,31Z"/><path class="cls-43" d="M193.7,303.4c-.58-2.2,1.79-1.87,2.32-3.21,5.73-14.41,4.61-26.04,7.67-40.3.46-2.13-.05-3.52,3.01-3.5-1.17-4.74-1.33-2.22-2.53-4-.5-.73.8-15.44,1.45-17.54.49-1.57,2.39-2.43,3.07-4.47l1.94-1.64c5.01-15.72,9.8-31.59,14.39-47.63l-.33-4.73-1-3c-13.01,12.1-24.33,33.44-33.77,48.73.53,20.24-1.48,41.72-.27,61.82.47,7.72,2.35,12.58,4.04,19.46Z"/><path class="cls-43" d="M182.7,282.4c-.48-14.3-.29-29.66,0-44v44Z"/><path class="cls-4" d="M394.7,208.4c4.02,4.2,4.78,1.53,8.42,1.98,3.02.37,6.91,3.34,2.54,5.48-2.86,1.4-11.89.49-8.02,6.11,1.52,2.21,5.88,2.48,5.07,6.43,7.17.6,16.83,2,23.5,2h21c3.58,0,7.65-.19,11.5,0-3.23-5.13-.76-9.82-1-15l-2.07-1.69c-18.51-2.15-37.15-4.3-55.91-6.45l-5.01,1.14Z"/><path class="cls-49" d="M401.7,196.4c-6.83,1.24-13.24,3.43-19.22,6.57l.22,2.43c3.85,1.55,7.95,2.21,12,3,21.06,4.1,42.61,3.55,63,7,5.23.88,12.14,13.16,17.86,15.16.81,1.34-.63,2.8-.86,3.84h2c-.52-12.39-.73-6.47-7.5-13-5.04-4.86-7.84-12.23-15.5-15-5.71,1.38-19.28,4.82-24.43,3.95-1.08-.18-11.69-5.55-13.48-6.54-3.25-1.8-7.81-4.47-10.09-7.41-1.42.09-3.83-.11-4,0Z"/><path class="cls-44" d="M372.7,171.4c.01.08-.9.62-.77,1.31l8.99,32.51c.55.46,1.43.03,1.78.17,4.67-4.44,13.45-4.76,18.27-7.04,1.15-.55.64-1.9.73-1.96l-29-25Z"/><path class="cls-45" d="M364.7,124.4c-3.19-.63-3.04,5.68-2.93,7.34.78,11.55,6.15,24.78,7.69,36.38.54,2.1,1.94,1.76,3.24,2.27l1.85-1.56c.27-5.9.14-32.67-2.26-35.77-.37-.48-1.01-.61-1.59-.67-1.23-3.33-4.01-5.24-6-8Z"/><path class="cls-6" d="M405.7,131.4c1.49-4.06,1.07-6.93-1.24-8.62l-1.57-5.47c1.99-3.87-3.7-7.25-5.12-2.31-.24,9.39-1.15,18.72-2.74,27.98-7.32-3.07-14.75-6.33-21.33-10.59-.06-.13-.68.1-1,0-.52-.16-1.37.11-2,0,2.69,7.26.78,27.82,2,38,10.06,3.94,25.18,12.61,35.47,11.99,3.99-.24,20.32-2.96,22.57-5.45,3.34-3.7,6.65-14.53,9.57-19.43.67-1.12,3.37-3.37,3.37-3.61,0-.52-3.54-1.84-4.98-3.5l-2.25-2.11-15.41-.71c-8.89-1.27-12.42-5.31-13.21-14.47l-2.13-1.71Z"/><path class="cls-1" d="M423.7,112.4c-1.39-3.79-20.51,2.11-21.1,3.07-.28.45,1.6,9.5,3.76,9.09.31,2.32-.15,4.62-.66,6.84,1.1,21.66,15.69,17.82,33,19-.9-1.04-2.56-5.41-3.2-5.79-3.56-2.09-13.62,2.59-20.74-3.77-2.43-2.17-7.76-12.73-5.94-15.33.34-.49,10.09-2.9,11.51-3.03,16.47-1.52,14.4,21,25.38,29.92,3.24.4,1.67-.95,1.35-2.84-1.44-8.28-4.28-19.42-8.18-26.83-4.21-8.01-5.81-10.81-15.17-10.33Z"/><path class="cls-24" d="M419.7,127.41c1.58,2.82,4.58,5.26,7.99,4.98.93-6.19-3.34-5.11-7.99-4.98Z"/><path class="cls-25" d="M403.7,89.4c-1.6.58-2.38,2.03-2.34,4.34l-2.29,7.44c-2.15-3.01-4.27-4.27-6.37-3.78-3.68,10.46-9.47,21.83-14.59,31.91-.49.97-2.87,3.95-2.41.09-.3.91-1.44,2.11-2,3,.05.09-.93,1.34-.48,2.02.85,1.27,22.53,11.89,23.47,10.98,1.49-10.59,3.31-21.26,3.02-32,2.16,1.14,2.38,6.41,2.71,8.81.35,2.54-1.92,6,3.27,2.18.1,2.32-.11,4.68.01,7,3.5-6.2.13-9.58-2-14.99,6.8-.78,13.07-3.65,20-4.01,1.56-1.55,2.72-.23,1.01-2.5-4.93-6.52-14.84-14.58-21.01-20.5Z"/><path class="cls-48" d="M392.7,97.4l7.99,9c-.82-5.98,3.7-10.93,3.01-17-3.78-3.63-7.3-7.33-11-11-1.62.09-.76,1.12-.59,2.07.58,3.23,3.5,7.46,3.61,9.52.08,1.63-2.21,5.12-3.02,7.41Z"/><path class="cls-18" d="M459.7,204.4c1.83,3.06,11.9,5.24,15,5,.5-.04.99-.45,1-1-.47-.35-8.29-4.41-8.92-4.56-3.95-.99-4.21-.05-7.08.56Z"/><path class="cls-43" d="M220.7,356.4c-1.14-7.21-1.07-15.37-4-22-2.09,6.2-1.66,11.24.44,18.05.52,1.68,1.97,3.19,3.56,3.95Z"/><path class="cls-43" d="M198.7,307.42c-2.4,2.85,5.45,4.81,8,4.98,2.47-5.15-6.6-6.63-8-4.98Z"/><path class="cls-43" d="M215.7,322.4l-5-34c1.06,9.85,2.25,19.76,2.94,29.56.13,1.86-.24,3.74,2.06,4.44Z"/><path class="cls-43" d="M207.19,324.41c-3.4-.92-4.59,3.28-1.98,3.98,3.4.92,4.59-3.28,1.98-3.98Z"/><path class="cls-3" d="M247.7,223.4c10.77-2.13,26.64-4.42,37.5-4.99,2.34-.12,4.69-.1,7.03,0,.86-.13,1.09.66,1.47.99.11,1.05.44,1.72,1,2,6.19,13.37,12.51,26.81,18.94,40.31,12.11,22.84,11.3,43.93-.84,66.82l.9,2.87.5,2c2.56-3.06,1.37-6.81,5.5-3,1.33-3,2.59-6.03,4-9,5.39-18.31,14.28-35.01,28.55-47.89,3.32-4.85,6.47-9.55,9.45-14.11,2.48-.54,3.06-.87,6-1l-14.52-2.01-4.48,1.01-2.07-.44-14.06,23.68c6.21-21.67,6.17-25.68-8.43-41.31-10.33-11.06-22.21-20.87-34.76-29.67l-3.69-.26c-.95-.11-1.83-.34-2.41-1.25l-35.17,12.96-.43,2.29Z"/><path class="cls-15" d="M323.7,321.4c5.1-10.76,18.2-36.5,26.02-44.48.95-.97,1.3-1.9,2.97-1.52-2.04,17.18-4.71,34.75-10.31,51.18-1.71,5.02-4.9,10.45-6.76,15.29-.7,1.84-1.49,2.58.08,4.53,1.41-.98,2.31-.93,3.85-2.64,9.48-10.52,17.1-28.67,25.72-40.32l-3.57-44.04c-.26.06-1.3-1.37-2.48-.07-2.92,5-6.55,10.44-10.1,14.99-5.69,7.29-15.24,16.76-19.22,24.78-3.17,6.38-3.98,15.3-6.2,22.3Z"/><path class="cls-16" d="M293.7,219.4c.13,2.47-1.28,9.97-2.26,11.76-.3.55-2.25.83-3.02,2.44-1.08,2.27-.21,5.33-.93,6.6-.65,1.14-4.25,1.46-6.97,7.53-16.07,35.84-30.62,79.38-39.32,117.68-.5,2.18-1.43,4.52-2.48,6.51,2.47,3.25,6.44-.68,9.97,1.49,18.36-8.63,35.45-17.08,53.13-27.36.68-.39,4.4-2.96,4.87-1.64.45-.73.67-1.44,1-2l1.37-6.01c-3.85-35.79-7.69-71.61-11.54-107.44l-2.82-7.55c-.25-.32-.11-1.23-1-2Z"/><path class="cls-31" d="M208.7,230.4c.1,2.45.76,2.99,3.21,2.8,6.92-.52,17.29-4.69,24.62-6.47,3.08-.75,8.08-2.72,11.18-3.33l38-14,13.21-11.97c4.88-3.46,7.81-7.47,8.79-12.03-27.82.02-56.18-1.63-83-9-6.99,17.41-10.05,36.3-16,54Z"/><path class="cls-8" d="M307.7,185.4c-6.43,7.71-13.67,13.65-20.97,20.55-.82.78-1.88,1.38-3.03,1.47-.22,1.14,1.16,1.35,2,1.98,9.29,6.97,17.3,12.31,26.01,20.49,5.23,4.91,22.91,21.61,23.01,27.98.15,9.52-5.61,21.68-5.02,31.53l18.99-32c-7.56-4.99-10.6-13.75-15.52-20.98-5.72-15.07-18-32.25-22.91-47.12-.62-1.87-.67-2.97-.57-4.91-.51.4-1.69.63-2,1Z"/><path class="cls-11" d="M307.7,342.4c2.13-3.62,4.27-7.17,6-11,5.66-12.5,12.44-28.57,10.89-42.39-1.63-14.61-20.57-55.84-29.89-67.61l13,121Z"/></svg>